<?xml version="1.0" encoding="utf-8"?>
<!-- Generator: Adobe Illustrator 24.0.0, SVG Export Plug-In . SVG Version: 6.00 Build 0)  -->
<svg version="1.1" xmlns="http://www.w3.org/2000/svg" xmlns:xlink="http://www.w3.org/1999/xlink" x="0px" y="0px"
	 viewBox="0 0 600 600" style="enable-background:new 0 0 600 600;" xml:space="preserve">
<style type="text/css">
	.st0{fill:#EFE6D9;}
	.st1{fill:#363E4F;}
	.st2{opacity:0.4;}
	.st3{fill:#F7BB4A;}
	.st4{fill:#A36140;}
	.st5{fill:#F7BC4B;}
	.st6{opacity:0.2;}
	.st7{opacity:0.6;fill:#FFFFFF;}
</style>
<g id="Background_x5F_Simple">
	<g>
		<path class="st0" d="M57.6,363.72c0,0-7.66,0.26-3.32,11.49c0,0-11.23,8.17-9.19,12c2.04,3.83,64.09-28.09,69.19-34.21
			s-6.38-3.06-10.47-3.06s-7.15-6.64-14.81-6.38s-9.45,7.4-9.45,7.4s-7.15-9.7-16.34-4.6S57.6,363.72,57.6,363.72z"/>
		<path class="st0" d="M313.26,211.13c-4.77,5.78,8.17,7.15-13.62,20.42c-21.79,13.28-187.58,90.9-200.85,87.49
			c-13.28-3.4,23.49-40.51,28.59-46.3c5.11-5.78-10.89,0.69-13.95-3.74c-3.07-4.43,20.76-22.13,22.12-24.17
			c1.36-2.04-14.64-28.6-2.04-59.23c12.6-30.64,43.58-33.54,43.58-33.54c0-0.76-13.54-61.27,43.4-72.51
			c56.94-11.23,70.72,26.05,72.25,29.88c1.54,3.83,9.71-14.56,35.49-8.17c25.47,6.3,19.81,33.53,19.67,34.2
			c0.85-0.42,43.55-21.44,58.97,3.33C422.45,163.81,318.02,205.34,313.26,211.13z"/>
		<path class="st0" d="M399.55,276.83c-9.56,12.12-11.4,18.72,7.15,10.04s50.04-20.43,52.94-24s-3.06-3.91,6.13-8
			s36.6-18.72,38.98-22.64c2.38-3.91-21.79,8.17-26.04,8.85c-4.26,0.68,0.68-12.94-9.7-14.64s-15.49,11.06-15.49,11.06
			s-17.53-19.23-38.3-5.45S402.11,273.6,399.55,276.83z"/>
	</g>
</g>
<g id="Layer_x5F_Ground">
	<g>
		<path class="st0" d="M588.91,425.26c-1.78,7.14-54.12,15.06-54.12,15.06s4.34,3.83-3.32,7.15c-7.66,3.32-35.24,8.17-35.24,8.17
			s13.74,14.27-28.56,21.69c5.92-4.4,11.43-10.89,8.14-12.76c-5.11-2.89-14.64,5.79-14.64,5.79c3.06-6.47,5.28-25.7-1.36-23.66
			c-6.64,2.04-6.13,24.68-6.13,24.68s-7.32-13.61-9.36-6.81c-2.04,6.81,8.17,13.45,8.17,13.45s0.08,0.61,0.57,1.33
			c-4.77,0.51-10.02,0.95-15.8,1.31c-76.93,4.76-62.3-8.92-61.73-9.44c-13.95,4.42-37.42,3.4-37.42,3.4
			c14.63,4.08,4.08,33.02-132.43,34.38s-65.02-21.45-65.02-21.45c-31.32-0.34-75.92-6.64-79.49-12.25
			c-3.57-5.62,9.7-11.24,9.7-11.24s-33.7,0.51-27.06-11.74c6.64-12.26,60.25-16.34,60.25-16.34c-43.91-9.19,13.28-39.83,73.54-47.49
			c60.25-7.66,145.53-11.23,145.53-11.23s-26.72-23.99,107.23-14.3c21.19,1.53,27.58,10.72,27.58,10.72s8.68-16.85,24-14.55
			c15.32,2.3,13.27,32.17,13.27,32.17s8.43-8.94,15.32-7.41c6.9,1.54,6.13,17.88,31.41,18.39c25.27,0.51,15.83,12.25,18.38,15.32
			C562.87,420.66,590.7,418.11,588.91,425.26z"/>
		<path class="st1" d="M462.6,416.85c-30.16-0.6-23.32,16.49,10.05,14.48C506.03,429.31,502.81,417.65,462.6,416.85z"/>
		<path class="st1" d="M93.36,462.4c-16.57,0.94-15.34,8.17,0.27,8.43C109.24,471.09,122.7,460.74,93.36,462.4z"/>
		<path class="st2" d="M132.36,437.51c-25.39,3.58-52.77,25.87,45.28,34.72c0,0-32.68,12.6,49.36,9.19
			c82.04-3.4,54.47-17.7,54.47-17.7s25.53-6.81,24.51-18.38S190.23,429.34,132.36,437.51z"/>
		<path class="st1" d="M542.19,382.36c-19.15-0.38-14.81,10.47,6.38,9.19C569.77,390.28,567.72,382.87,542.19,382.36z"/>
		<g>
			<g>
				<path class="st1" d="M367.68,480.4c-14.17-0.33-10.85,6.13-0.64,5.62C377.26,485.51,378.53,480.66,367.68,480.4z"/>
				<path class="st1" d="M393.72,489.09c-9.83-0.1-8.43,3.7-1.02,5.11C400.11,495.6,406.87,489.21,393.72,489.09z"/>
				<path class="st1" d="M369.72,496.87c-5.53,0-4.98,4.85-0.13,4.72C374.45,501.47,374.19,496.87,369.72,496.87z"/>
				<path class="st1" d="M349.43,490.11c-5.74,0.27-5.36,4.47,0.64,4.34S360.4,489.6,349.43,490.11z"/>
				<path class="st1" d="M330.66,498.15c-7.86,0.94-7.28,8.17,0.13,8.43S344.57,496.49,330.66,498.15z"/>
				<path class="st1" d="M350.7,510.91c-6.65-0.22-4.09,6.38,2.81,5.87S362.45,511.3,350.7,510.91z"/>
			</g>
		</g>
		<path class="st2" d="M430.53,427.85c0,7.45-22.97,13.49-51.32,13.49c-28.34,0-51.32-6.04-51.32-13.49c0-1.5,0.93-2.95,2.66-4.3
			c-0.01,0-0.01,0-0.02,0c-8.22,0-14.89-2.47-14.89-5.53c0-3.05,6.67-5.53,14.89-5.53c7.94,0,14.42,2.31,14.87,5.21
			c9.03-2.08,20.86-3.34,33.81-3.34C407.56,414.36,430.53,420.4,430.53,427.85z"/>
		<path class="st2" d="M451.88,400.19c0,5.43-16.74,9.83-37.39,9.83c-20.65,0-37.39-4.4-37.39-9.83c0-1.09,0.68-2.15,1.94-3.13
			c-0.01,0-0.01,0-0.01,0c-5.99,0-10.85-1.8-10.85-4.03c0-2.22,4.86-4.03,10.85-4.03c5.79,0,10.51,1.68,10.83,3.8
			c6.58-1.52,15.2-2.43,24.64-2.43C435.14,390.36,451.88,394.76,451.88,400.19z"/>
	</g>
</g>
<g id="Layer_x5F_Question_Mark_2">
	<g>
		<g>
			<path class="st3" d="M347.64,207.09c-5.42-0.17-3.83-16.21,9.96-16.34c13.79-0.13,13.02,15.7,7.28,19.53s-7.53,9.06-8.55,15.06
				s-7.17,5.67-7.02-1.53c0.13-6.38,2.81-11.87,7.91-15.45c5.11-3.57,1.91-9.45-2.68-6.64C349.94,204.53,351.6,207.21,347.64,207.09
				z"/>
			<path class="st3" d="M352.3,234.36c-3.82,0.49-5.23,9.15,0.15,9.46C357.84,244.13,357.07,233.74,352.3,234.36z"/>
		</g>
	</g>
</g>
<g id="Layer_x5F_Question_Mark">
	<g>
		<g>
			<path class="st3" d="M309.21,228.79c-4.24,1.32-7.33-11.52,3.31-15.33c10.64-3.81,14.31,8.65,10.89,13.16
				c-3.42,4.51-3.39,9.04-2.57,13.96c0.82,4.92-4.02,6.32-5.85,0.7c-1.62-4.98-1.02-9.95,1.97-14.09s-1.06-7.83-3.86-4.42
				C310.3,226.2,312.3,227.83,309.21,228.79z"/>
			<path class="st3" d="M320.16,248.65c-2.83,1.41-1.59,8.49,2.67,7.28S323.68,246.89,320.16,248.65z"/>
		</g>
	</g>
</g>
<g id="Layer_x5F_Character1">
	<g id="right_back_leg">
		<g>
			<path class="st4" d="M403.3,402.62c-3.49,2.89-15.49,4.17-15.57,1.61c-0.09-2.55,2.38-2.55,2.98-5.36
				c0.59-2.81,2.38-10.89,2.38-10.89s0.17-1.87-7.15-4.26c-1.93-0.63-3.4-2.78-4.53-5.85c-3.16-8.61-3.6-24.4-3.64-33.81
				c-0.09-22.29,24-24.42,26.3-16.59c2.3,7.83,0.51,32.08,1.1,37.1c0.33,2.79,1.21,6.67,1.95,10.12c0.59,2.78,1.08,5.3,1.12,6.74
				C408.32,384.66,406.79,399.72,403.3,402.62z"/>
			<path class="st2" d="M403.3,402.62c-3.49,2.89-15.49,4.17-15.57,1.61c-0.09-2.55,2.38-2.55,2.98-5.36
				c0.59-2.81,2.38-10.89,2.38-10.89s0.17-1.87-7.15-4.26c-1.93-0.63-3.4-2.78-4.53-5.85c-3.16-8.61-3.6-24.4-3.64-33.81
				c-0.09-22.29,24-24.42,26.3-16.59c2.3,7.83,0.51,32.08,1.1,37.1c0.33,2.79,1.21,6.67,1.95,10.12c0.59,2.78,1.08,5.3,1.12,6.74
				C408.32,384.66,406.79,399.72,403.3,402.62z"/>
			<path class="st2" d="M403.3,402.62c-3.49,2.89-15.49,4.17-15.57,1.61c-0.09-2.55,2.38-2.55,2.98-5.36
				c0.59-2.81,2.38-10.89,2.38-10.89s0.17-1.87-7.15-4.26c-1.93-0.63-3.4-2.78-4.53-5.85c5.99,5.12,15.11,4.87,21,2.83
				c2.57-0.89,3.97-3.27,4.71-6.01c0.59,2.78,1.08,5.3,1.12,6.74C408.32,384.66,406.79,399.72,403.3,402.62z"/>
		</g>
	</g>
	<g id="front_upper_right_leg">
		<g>
			<path class="st4" d="M356.12,388.3c-1.08,8.88-8.79,11.29-13.87,7.58c-2.43-1.76-4.26-4.92-4.48-9.43c0,0,0.34-12.26-0.86-19.92
				c-0.59-3.83-2.14-8.56-2.76-13.44c-0.63-4.88-0.34-9.9,2.76-14.3c7.41-10.51,19.03-2.26,20.3,5.78
				C358.42,352.18,356.55,380.2,356.12,388.3z"/>
			<path class="st2" d="M356.12,388.3c-1.08,8.88-8.79,11.29-13.87,7.58c0.61-11.41-0.6-25.69-1.93-34.28
				c-0.78-5.05-3.35-6.81-6.17-8.51c-0.63-4.88-0.34-9.9,2.76-14.3c7.41-10.51,19.03-2.26,20.3,5.78
				C358.42,352.18,356.55,380.2,356.12,388.3z"/>
		</g>
	</g>
	<g id="front_right_leg">
		<g>
			<path class="st4" d="M356.12,388.3c-0.02,0.47-0.04,0.88-0.06,1.21c-0.25,6-4.08,27.96-6.25,29.87
				c-2.17,1.92-13.41,3.83-15.96,1.41c-0.32-0.3-0.56-0.62-0.73-0.93c-1.24-2.24,0.71-4.77,1.5-6.22
				c0.89-1.66,3.15-27.19,3.15-27.19c0.49-3.36,2.18-5.75,4.34-7.11C347.41,375.96,355.59,378.7,356.12,388.3z"/>
			<path class="st2" d="M356.12,388.3c-0.02,0.47-0.04,0.88-0.06,1.21c-0.25,6-4.08,27.96-6.25,29.87
				c-2.17,1.92-13.41,3.83-15.96,1.41c-0.32-0.3-0.56-0.62-0.73-0.93c8.3-1.05,7.43-7.77,8.73-19.12c0.71-6.26,0.68-14.02,0.26-21.4
				C347.41,375.96,355.59,378.7,356.12,388.3z"/>
		</g>
	</g>
	<g id="left_back_leg">
		<g>
			<path class="st4" d="M438.02,402.62c-3.49,2.89-15.49,4.17-15.57,1.61c-0.09-2.55,2.38-2.55,2.98-5.36
				c0.59-2.81,2.38-10.89,2.38-10.89s0.17-1.87-7.15-4.26c-1.93-0.63-3.4-2.78-4.53-5.85c-3.16-8.61-3.6-24.4-3.64-33.81
				c-0.09-22.29,24-24.42,26.3-16.59c2.3,7.83,0.51,32.08,1.1,37.1c0.33,2.79,1.21,6.67,1.95,10.12c0.59,2.78,1.08,5.3,1.12,6.74
				C443.04,384.66,441.51,399.72,438.02,402.62z"/>
			<path class="st2" d="M438.02,402.62c-3.49,2.89-15.49,4.17-15.57,1.61c-0.09-2.55,2.38-2.55,2.98-5.36
				c0.59-2.81,2.38-10.89,2.38-10.89s0.17-1.87-7.15-4.26c-1.93-0.63-3.4-2.78-4.53-5.85c5.99,5.12,15.11,4.87,21,2.83
				c2.57-0.89,3.97-3.27,4.71-6.01c0.59,2.78,1.08,5.3,1.12,6.74C443.04,384.66,441.51,399.72,438.02,402.62z"/>
		</g>
	</g>
	<g id="tail">
		<path class="st4" d="M422.53,252.83c-2.56,1.92,4.77,38.98-6.3,55.66c-11.06,16.68,2.72,13.45,10.04,3.91
			c7.32-9.53,11.4-23.66,10.89-37.79C436.66,260.49,427.3,249.26,422.53,252.83z"/>
	</g>
	<g id="body">
		<g>
			<path class="st4" d="M437.17,348.32c-1.7,8.34-21.45,33.53-49.36,34.38c-27.92,0.85-44.6-7.32-48.68-28.76
				c-3-15.71,1.59-40.1,15.37-48.2c5.03-2.97,11.28-3.76,18.84-1.17c7.65,2.63,14.3,7.49,27.92,5.62c9.45-1.3,23.14-5.79,31.83,5.62
				c3.32,4.36,4.95,8.92,5.59,13.35C439.73,336.32,438.22,343.17,437.17,348.32z"/>
			<path class="st2" d="M438.68,329.16c1.05,7.16-0.46,14.01-1.51,19.16c-1.7,8.34-21.45,33.53-49.36,34.38
				c-27.92,0.85-44.6-7.32-48.68-28.76c-3-15.71,1.59-40.1,15.37-48.2l12.03,9.73c8.68,18.64,9.7,27.32-0.25,38.81
				c-9.96,11.49,36,20.17,61.02-8.43C432.43,339.99,436.1,334.38,438.68,329.16z"/>
		</g>
	</g>
	<g id="front_upper_left_leg">
		<g>
			<path class="st4" d="M403.83,365.06c0.03,5.75-0.2,12.89-0.57,20.09c-0.77,4.57-2.87,7.78-5.5,9.74
				c-6.5,4.83-16.26,1.97-17.34-7.2c-0.68-6.85-1.95-16.14-4.19-27.54c-2.8-14.3-2.08-27.38,7.41-29.49
				c13.79-3.06,18.64,12,19.91,26.3C403.74,359.07,403.83,361.84,403.83,365.06z"/>
			<path class="st2" d="M403.83,365.06c0.03,5.75-0.2,12.89-0.57,20.09c-0.77,4.57-2.87,7.78-5.5,9.74
				C399.14,385.08,402.12,374.27,403.83,365.06z"/>
		</g>
	</g>
	<g id="front_left_leg">
		<g>
			<path class="st4" d="M403.26,385.15c-0.82,16.01-2.33,32.34-3.28,34.49c-1.53,3.46-19.32,4.18-21.2,1.23
				c-0.11-0.17-0.16-0.35-0.16-0.55c0.08-3.58,2.72-4.89,2.72-5.79c0-0.89,0-15.06-0.51-22.08c-0.1-1.42-0.24-3.02-0.41-4.76
				c-0.29-13.03,14.53-15.43,20.45-8.8C402.28,380.47,403.18,382.56,403.26,385.15z"/>
			<path class="st2" d="M403.26,385.15c-0.82,16.01-2.33,32.34-3.28,34.49c-1.53,3.46-19.32,4.18-21.2,1.23
				c12.52,0.52,18.22-2.23,18.22-16.55c0-7.64,1.9-16.68,3.87-25.43C402.28,380.47,403.18,382.56,403.26,385.15z"/>
		</g>
	</g>
	<g id="leashes">
		<g>
			<g>
				<path class="st5" d="M369.49,339.12c-2.34,1.65-4.92,2.96-7.68,3.79c-16.57,4.99-24.27-2.91-24.63-3.3
					c8.18,2.93,18.08,1.58,26.16-2.59c4.52-2.34,8.48-5.57,11.23-9.42c7.66-10.73,4.39-21.83,4.39-21.83
					C387.26,313.14,381.54,330.63,369.49,339.12z"/>
				<path class="st2" d="M369.49,339.12c-2.34,1.65-4.92,2.96-7.68,3.79c-16.57,4.99-24.27-2.91-24.63-3.3
					c8.18,2.93,18.08,1.58,26.16-2.59C365.51,337.92,367.59,338.6,369.49,339.12z"/>
			</g>
			<path class="st5" d="M351.89,343.38c-0.74,0.53-5.62,15.66-5.02,15.83c0.6,0.17,9.28,1.45,10.04,0.77
				S353.09,342.53,351.89,343.38z"/>
			<path class="st2" d="M351.89,343.38c-0.74,0.53-5.62,15.66-5.02,15.83c0.6,0.17,9.28,1.45,10.04,0.77
				S353.09,342.53,351.89,343.38z"/>
			<path class="st5" d="M352.61,342.78c0.07,0.9,10.52,12.89,10.97,12.47c0.45-0.42,6.02-7.2,5.84-8.21
				C369.23,346.04,352.5,341.32,352.61,342.78z"/>
		</g>
	</g>
	<g id="head">
		<g>
			<g>
				<path class="st4" d="M333.04,278.15c0,0-8.64-13.46-11.32-14.61c-2.68-1.15-8.94,16.86-2.05,23.62S333.04,278.15,333.04,278.15z
					"/>
				<path class="st2" d="M333.04,278.15c0,0-8.64-13.46-11.32-14.61c-2.68-1.15-8.94,16.86-2.05,23.62S333.04,278.15,333.04,278.15z
					"/>
			</g>
			<g>
				<path class="st4" d="M370.74,328.49c-1.71,1.88-3.66,3.47-5.75,4.79c-11.62,7.41-27.31,6.95-27.31,6.95
					c-23.74,5.49-32.94-13.95-31.83-18.46c1.11-4.51,14.89-19.66,14.89-19.66s-5.66-12.1-1.58-17.46
					c8.09-10.62,26.29-12.38,26.29-12.38c-0.04-20.98,6.16-19.23,10.11-13.48c3.96,5.74,21.58,46.08,21.58,46.08
					S381.98,316.11,370.74,328.49z"/>
				<path class="st2" d="M364.99,333.28c-11.62,7.41-27.31,6.95-27.31,6.95s17.23-5.49,20.81-21.57c0,0,1.28,8.17-1.02,12.64
					C356.06,334.03,360,335.05,364.99,333.28z"/>
			</g>
			<path class="st1" d="M341.38,287.77c-1.82,0.68-1.21,7.6,2.3,6.38C347.19,292.94,344.96,286.43,341.38,287.77z"/>
			<path class="st1" d="M325.11,291.66c-1.82,0.68-1.21,7.6,2.3,6.38C330.91,296.83,328.68,290.32,325.11,291.66z"/>
			<path class="st1" d="M312.79,318.02c-6,2.44-2.49,7.28,3.57,7.4C322.43,325.55,326.77,312.34,312.79,318.02z"/>
		</g>
	</g>
</g>
<g id="Layer_x5F_Cage">
	<g>
		<g>
			<g>
				<g>
					<g>
						<path class="st3" d="M299.31,422.06v22c0,3.37-1.95,6.6-5.51,9.58c-12.45,10.44-44.67,17.87-82.45,17.87
							c-48.58,0-87.96-12.29-87.96-27.45v-22h35.37c3.58-0.83,7.37-1.59,11.34-2.24c12.3-2.05,26.34-3.2,41.25-3.2
							c19.72,0,37.92,2.02,52.59,5.44H299.31z"/>
					</g>
					<path class="st2" d="M293.8,453.64c-10.18,8.54-33.58,15.06-62.43,17.15c-6.43,0.47-13.13,0.72-20.02,0.72
						c-30.25,0-56.93-4.77-72.76-12.02c-9.59-4.4-15.2-9.71-15.2-15.43v-22h35.37c3.58-0.83,7.37-1.59,11.34-2.24
						c12.64,15.86,39.48,23.52,63.12,25.27c8.39,0.62,16.38,0.5,23.18-0.26C276.1,442.62,286.41,448.81,293.8,453.64z"/>
					<path class="st2" d="M231.37,470.79c-6.43,0.47-13.13,0.72-20.02,0.72c-30.25,0-56.93-4.77-72.76-12.02
						c0.21-9.4-0.24-24.31-1.71-37.43h21.88c3.58-0.83,7.37-1.59,11.34-2.24c12.64,15.86,39.48,23.52,63.12,25.27
						C233.49,454.1,233.22,463.37,231.37,470.79z"/>
				</g>
				<g>
					<g>
						<path class="st3" d="M299.31,422.06c0,0.51-0.04,1.01-0.13,1.51c-2.52,14.46-40.88,25.94-87.83,25.94
							c-48.58,0-87.96-12.29-87.96-27.45c0-13.75,32.43-25.14,74.73-27.13c4.32-0.2,8.73-0.31,13.23-0.31
							C259.93,394.62,299.31,406.91,299.31,422.06z"/>
					</g>
					<path class="st6" d="M299.18,423.57c-2.52,14.46-40.88,25.94-87.83,25.94c-48.58,0-87.96-12.29-87.96-27.45
						c0-13.75,32.43-25.14,74.73-27.13c-26.73,6.23-36.23,17.85-36.6,18.32c0.74-0.27,36.69-13.47,78.37-7.91
						c42.13,5.62,6.64,32.68-40.85,27.32c-47.49-5.36,42.39,25.53,94.22-5.87C295.36,425.51,297.34,424.44,299.18,423.57z"/>
				</g>
			</g>
		</g>
		<g>
			<g>
				<g>
					<path class="st1" d="M234.64,181.99c-6.92-6.96-14.76-10.49-23.29-10.49c-0.04,0-0.08,0-0.11,0v3c0.04,0,0.08,0,0.11,0
						c7.71,0,14.83,3.23,21.17,9.61c38.22,38.45,40.33,180.74,40.07,223.44c0,0.83,0.66,1.5,1.49,1.51c0,0,0.01,0,0.01,0
						c0.82,0,1.5-0.67,1.5-1.49C275.92,352.47,272.61,220.19,234.64,181.99z"/>
				</g>
				<g>
					<path class="st1" d="M246.22,264.21c-6.74-62.39-18.14-92.71-34.87-92.71c-0.04,0-0.08,0.01-0.11,0.01v3
						c0.04,0,0.08-0.01,0.11-0.01c10.11,0,23.85,15.62,31.89,90.04c5.37,49.72,6.15,107.4,6.14,137.36c0,0.83,0.67,1.5,1.5,1.5h0
						c0.83,0,1.5-0.67,1.5-1.5C252.38,371.88,251.6,314.07,246.22,264.21z"/>
				</g>
				<g>
					<path class="st1" d="M231.26,261.5c-5.04-80.67-13.78-90-19.91-90c-0.04,0-0.08,0.01-0.11,0.01v3.01
						c0.04,0,0.08-0.01,0.11-0.01c3.45,0,12.01,8.5,16.92,87.19c3.06,48.97,3.56,106.63,3.59,136.63c0,0.83,0.67,1.5,1.5,1.5
						c0,0,0,0,0,0c0.83,0,1.5-0.67,1.5-1.5C234.83,368.28,234.32,310.55,231.26,261.5z"/>
				</g>
				<g>
					<path class="st1" d="M184.01,183.71c-40.15,40.42-43.64,170.01-43.28,223.86c0.01,0.83,0.68,1.49,1.5,1.49c0,0,0.01,0,0.01,0
						c0.83-0.01,1.5-0.68,1.49-1.51c-0.28-41.72,1.95-180.99,42.41-221.72c7.43-7.48,15.87-11.29,25.1-11.32v-3
						C201.18,171.53,192.02,175.64,184.01,183.71z"/>
				</g>
				<g>
					<path class="st1" d="M172.6,264.2c-6.01,49.87-6.88,107.68-6.87,137.7c0,0.83,0.67,1.5,1.5,1.5h0c0.83,0,1.5-0.67,1.5-1.5
						c-0.01-29.95,0.86-87.63,6.85-137.34c7.08-58.78,19.41-89.9,35.66-90.05v-3C193,171.64,180,202.82,172.6,264.2z"/>
				</g>
				<g>
					<path class="st1" d="M200.7,261.55c-1.52,49.03-1.77,106.74-1.78,136.77c0,0.83,0.67,1.5,1.5,1.5h0c0.83,0,1.5-0.67,1.5-1.5
						c0.01-29.15,0.25-85.28,1.69-133.67c2.16-72.69,5.82-87.26,7.62-89.82v-3.33C208.46,171.52,203.46,172.73,200.7,261.55z"/>
				</g>
			</g>
		</g>
		<g>
			<path class="st5" d="M279.46,342.24c-1.22,1.74-3.59,2.67-4.29,2.55c-1.02-0.17-124.81-43.96-124.81-43.96s-3.74-1.02-4.93-4.09
				c-0.25-0.64-0.27-1.26-0.14-1.84c0.47-2.17,3.03-3.77,3.03-3.77s6.98,1.7,8.17,2.38c1.19,0.68,117.49,41.06,118.68,41.92
				c1.19,0.85,4.26,0.34,4.94,3.91C280.32,340.47,280.01,341.44,279.46,342.24z"/>
			<path class="st2" d="M279.46,342.24c-1.22,1.74-3.59,2.67-4.29,2.55c-1.02-0.17-124.81-43.96-124.81-43.96s-3.74-1.02-4.93-4.09
				c-0.25-0.64-0.27-1.26-0.14-1.84c17.84,7.88,121.43,43.47,129.07,45.12C275.86,340.34,277.67,341.15,279.46,342.24z"/>
		</g>
		<g>
			<g>
				<g>
					<path class="st1" d="M211.23,171.5v3c-1.8,0.01-3.58,0.11-5.32,0.31c-1.45,0.16-2.89,0.39-4.3,0.69
						c-3.49,0.72-6.88,1.86-10.14,3.4c-5.79,2.71-11.2,6.69-16.19,11.9c-22.58,23.57-34.23,69.34-40.15,114.15
						c-7.95,59.96-5.65,118.2-5.6,119.22c0.04,0.83-0.61,1.53-1.43,1.56c-0.84,0.03-1.53-0.6-1.57-1.43
						c-0.02-0.45-1.87-45.26,2.9-96.36c0.35-3.79,0.73-7.52,1.14-11.18c6.91-62.72,21.21-105.77,42.54-128.03
						c10.7-11.17,23.23-16.96,37.25-17.22C210.65,171.51,210.94,171.5,211.23,171.5z"/>
				</g>
				<g>
					<path class="st1" d="M296.16,424.3c-0.03,0.8-0.7,1.43-1.49,1.43h-0.07c-0.83-0.03-1.47-0.73-1.43-1.56
						c0.07-1.69,6.37-161.43-38.44-224.46c-2.3-3.24-4.73-6.22-7.31-8.91c-3.28-3.42-6.74-6.31-10.36-8.66
						c-4.6-2.98-9.47-5.1-14.58-6.33c-2.53-0.62-5.13-1.02-7.79-1.2c-0.76-0.05-1.54-0.08-2.31-0.09c-0.34-0.01-0.69-0.02-1.03-0.02
						h-0.12v-3h0.12c0.3,0,0.59,0.01,0.88,0.02h0.25c13.96,0.29,26.45,6.08,37.11,17.21c2.87,3,5.62,6.37,8.23,10.12
						c17.94,25.71,29.85,69.03,35.45,129.09C298.03,379.04,296.18,423.85,296.16,424.3z"/>
				</g>
				<g>
					<path class="st1" d="M211.23,171.5v3c-0.49,0-0.98,0.03-1.47,0.05c-1.38,0.08-2.73,0.26-4.06,0.56
						c-1.93,0.41-3.81,1.05-5.64,1.9c-3.62,1.67-7.06,4.18-10.29,7.52c-14.4,14.86-23.62,44.47-29.5,77.95
						c-12.56,71.39-9.94,160.4-9.9,161.71v11.92c0,0.82-0.67,1.5-1.5,1.5s-1.5-0.68-1.5-1.5v-11.88
						c-0.01-0.43-1.51-48.94,2.64-102.65c1.54-19.84,3.6-37.76,6.2-53.74c6.85-42.26,17.36-70.89,31.4-85.39
						c1.26-1.3,2.54-2.48,3.86-3.55c5.77-4.69,12.1-7.16,18.89-7.39C210.65,171.51,210.94,171.5,211.23,171.5z"/>
				</g>
				<g>
					<path class="st1" d="M211.23,171.51v3c-2.32,0.02-4.51,0.82-6.64,2.42c-0.69,0.53-1.38,1.13-2.06,1.83
						c-9.06,9.26-15.34,31.83-19.68,59.75c-11.43,73.55-9.38,184.16-9.35,185.69v17.4c0,0.82-0.67,1.5-1.5,1.5s-1.5-0.68-1.5-1.5
						v-17.37c-0.12-6.11-2.04-109.87,8.76-182.46c4.45-29.85,11.04-54.42,20.8-64.76c0.11-0.12,0.22-0.24,0.33-0.35
						c0.4-0.41,0.81-0.8,1.22-1.16C204.6,172.88,207.83,171.54,211.23,171.51z"/>
				</g>
				<g>
					<path class="st1" d="M211.23,171.51v3c-0.69,0.04-1.39,0.41-2.12,1.15c-5.42,5.48-9.25,25.28-11.94,51.48
						c-7.51,72.91-6.25,195.4-6.23,197.08v19.85c0,0.82-0.67,1.5-1.5,1.5s-1.5-0.68-1.5-1.5v-19.84
						c-0.08-6.71-1.26-122.37,6.04-194.77c2.46-24.32,5.88-43.75,10.61-52.53c0.36-0.67,0.73-1.28,1.11-1.82
						c0.07-0.1,0.14-0.2,0.21-0.3c0.35-0.47,0.7-0.9,1.06-1.26C208.29,172.22,209.72,171.54,211.23,171.51z"/>
				</g>
				<g>
					<path class="st1" d="M281.68,424.29v11.82c0,0.82-0.67,1.5-1.5,1.5s-1.5-0.68-1.5-1.5v-11.88
						c0.05-1.77,5.14-158.08-30.57-222.5c-3.31-5.98-6.98-11.17-11.03-15.37c-4.12-4.28-8.56-7.41-13.28-9.37
						c-2.93-1.22-5.96-2-9.09-2.31c-0.77-0.09-1.55-0.14-2.33-0.16c-0.34-0.01-0.69-0.02-1.03-0.02h-0.12v-3h0.12
						c0.3,0,0.59,0.01,0.88,0.02h0.25c8.98,0.27,17.23,3.84,24.58,10.62c0.74,0.68,1.46,1.4,2.18,2.14
						c4.25,4.4,8.19,9.91,11.82,16.52c13.86,25.19,23.21,66.34,27.88,122.78C283.31,376.48,281.69,423.82,281.68,424.29z"/>
				</g>
				<g>
					<path class="st1" d="M256.77,424.27v17.33c0,0.82-0.67,1.5-1.5,1.5c-0.83,0-1.5-0.68-1.5-1.5v-17.37
						c0.04-1.79,3.13-151.11-17.96-218.08c-3.69-11.73-8.13-20.93-13.45-26.38c-2.42-2.48-4.91-4.06-7.53-4.79
						c-1.13-0.32-2.29-0.48-3.48-0.48c-0.04,0-0.08,0.01-0.12,0.01v-3c0.04,0,0.08-0.01,0.12-0.01c0.3,0,0.59,0.01,0.88,0.02
						c3.62,0.2,7.05,1.64,10.25,4.29c0.44,0.36,0.89,0.75,1.32,1.18c0.24,0.21,0.47,0.44,0.7,0.68c5.61,5.73,10.25,15.29,14.1,27.4
						C259.92,272.04,256.93,417.05,256.77,424.27z"/>
				</g>
				<g>
					<path class="st1" d="M223.73,424.24v19.83c0,0.82-0.67,1.5-1.5,1.5c-0.83,0-1.5-0.68-1.5-1.5v-19.84
						c0-0.61,0.33-61.44-0.77-122.47c-0.65-35.82-1.66-64.71-2.99-85.84c-0.02-0.34-0.04-0.68-0.07-1.02
						c-2.08-32.32-4.54-38.9-5.56-40.21c-0.03,0.04-0.07,0.09-0.11,0.14v-3.33h0.12c0.48,0,1.21,0.15,1.92,0.87
						c0.35,0.35,0.84,0.84,1.42,2.24c0,0.02,0.01,0.05,0.02,0.07c0.04,0.1,0.08,0.2,0.12,0.3c1.41,3.73,3.3,13.01,4.98,38.42
						c1.27,19.19,2.42,47.57,3.17,89.69C224.05,363.68,223.73,423.64,223.73,424.24z"/>
				</g>
				<path class="st7" d="M247.42,190.8c-3.28-3.42-6.74-6.31-10.36-8.66c0.74,0.68,1.46,1.4,2.18,2.14
					c4.25,4.4,8.19,9.91,11.82,16.52c-0.99,0.3-1.98,0.61-2.95,0.93c-3.31-5.98-6.98-11.17-11.03-15.37
					c-4.12-4.28-8.56-7.41-13.28-9.37c0.24,0.21,0.47,0.44,0.7,0.68c5.61,5.73,10.25,15.29,14.1,27.4
					c-0.94,0.35-1.87,0.71-2.79,1.08c-3.69-11.73-8.13-20.93-13.45-26.38c-2.42-2.48-4.91-4.06-7.53-4.79
					c1.41,3.73,3.3,13.01,4.98,38.42c-0.98,0.49-1.95,1-2.91,1.5c-2.08-32.32-4.54-38.9-5.56-40.21c-0.03,0.04-0.07,0.09-0.11,0.14
					v-0.32c-0.69,0.04-1.39,0.41-2.12,1.15c-5.42,5.48-9.25,25.28-11.94,51.48c-1.08,0.76-2.14,1.54-3.19,2.32
					c2.46-24.32,5.88-43.75,10.61-52.53c-0.69,0.53-1.38,1.13-2.06,1.83c-9.06,9.26-15.34,31.83-19.68,59.75
					c-1.22,1.08-2.42,2.17-3.59,3.26c4.45-29.85,11.04-54.42,20.8-64.76c-3.62,1.67-7.06,4.18-10.29,7.52
					c-14.4,14.86-23.62,44.47-29.5,77.95c-1.41,1.79-2.76,3.58-4.06,5.36c6.85-42.26,17.36-70.89,31.4-85.39
					c1.26-1.3,2.54-2.48,3.86-3.55c-5.79,2.71-11.2,6.69-16.19,11.9c-22.58,23.57-34.23,69.34-40.15,114.15
					c-1.92,4.48-3.42,8.48-4.56,11.81c6.91-62.72,21.21-105.77,42.54-128.03c10.7-11.17,23.23-16.96,37.25-17.22
					c0.29,0,0.58-0.01,0.87-0.01h0.12c0.3,0,0.59,0.01,0.88,0.02h0.25c13.96,0.29,26.45,6.08,37.11,17.21
					c2.87,3,5.62,6.37,8.23,10.12c-1.04,0.28-2.07,0.57-3.09,0.86C252.43,196.47,250,193.49,247.42,190.8z"/>
			</g>
		</g>
		<g>
			<g>
				<g>
					<path class="st1" d="M171.82,405.56l-0.39,1.96c0.1,0.02,15.97,3.19,40.92,3.19c12.48,0,27.22-0.79,43.4-3.17
						c0.97-0.14,1.7-0.97,1.71-1.96c0.04-3.88,0.06-7.77,0.06-11.69c0-22.84-0.71-46.24-2-70.11c-0.03-0.54-0.28-1.05-0.69-1.41
						c-0.41-0.35-0.95-0.53-1.49-0.48c-15.3,1.44-29.25,1.92-41.04,1.92c-11.8,0-21.44-0.48-28.13-0.96
						c-3.34-0.24-5.95-0.48-7.71-0.66c-0.88-0.09-1.55-0.16-2-0.22c-0.22-0.03-0.39-0.05-0.51-0.06c-0.11-0.01-0.16-0.02-0.16-0.02
						c-0.55-0.07-1.11,0.09-1.54,0.45c-0.43,0.36-0.69,0.88-0.71,1.44c-1.2,25.64-1.72,52.49-1.72,80.28c0,0.49,0,0.99,0,1.49
						c0,0.95,0.67,1.77,1.61,1.96L171.82,405.56l2,0c0-0.49,0-0.99,0-1.48c0-27.74,0.52-54.53,1.71-80.09l-2-0.09l-0.25,1.98
						c0.07,0.01,15.21,1.95,39.02,1.95c11.91,0,25.98-0.48,41.42-1.94l-0.19-1.99l-2,0.11c1.29,23.81,2,47.14,2,69.89
						c0,3.9-0.02,7.78-0.06,11.64l2,0.02l-0.29-1.98c-15.96,2.35-30.52,3.13-42.82,3.13c-12.31,0-22.37-0.78-29.34-1.56
						c-3.49-0.39-6.2-0.78-8.03-1.07c-0.92-0.15-1.62-0.27-2.08-0.35c-0.23-0.04-0.41-0.07-0.52-0.1l-0.13-0.02l-0.04-0.01
						L171.82,405.56l2,0L171.82,405.56z"/>
				</g>
			</g>
		</g>
		<g>
			<g>
				<path class="st3" d="M209.43,134.58v9.59c-0.17,0-0.34,0-0.51,0.01c-6.98,0.6-8.92,6.65-7.71,11.44
					c0.8,3.23,3.53,5.11,6.58,5.68l-0.72,4.23l-0.54,3.13c0,0,0.09,1.48,0.55,3.02c-2.4-0.02-4.84-0.4-7.24-1.16
					c-6.38-2.02-9.24-8.61-9.02-15.59c0.27-8.48,5.08-17.52,13.63-19.66C206.06,134.87,207.74,134.63,209.43,134.58z"/>
				<path class="st2" d="M207.08,171.68c-2.4-0.02-4.84-0.4-7.24-1.16c-6.38-2.02-9.24-8.61-9.02-15.59
					c3.82,7.38,8.48,10.8,16.25,10.6l-0.54,3.13C206.53,168.66,206.62,170.14,207.08,171.68z"/>
			</g>
			<g>
				<path class="st3" d="M210.15,175.81c-7.06,0.19-10.51-3.92-10.62-8.21c-0.09-4.09,2.84-8.33,8.58-9.15
					c1.9-0.27,3.57-0.17,5.01,0.21C222.54,161.12,222.11,175.48,210.15,175.81z"/>
				<path class="st2" d="M210.15,175.81c-7.06,0.19-10.51-3.92-10.62-8.21c3.18,4.35,9.41,3.6,13.56-1.24
					c2.53-2.96,1.78-5.73,0.03-7.7C222.54,161.12,222.11,175.48,210.15,175.81z"/>
			</g>
			<path class="st3" d="M228.58,152.88c0.12,8.78-5.95,15.25-13.89,17.71c-1.91-0.41-3.18-1.83-3.73-4.23
				c-0.09-0.4-0.15-0.79-0.17-1.17c-0.1-1.62,0.35-2.98,0.75-3.84v-0.01c2.76-0.43,5.28-1.91,6.4-4.43
				c2.86-6.47-1.8-12.98-8.51-12.74v-9.59c8.87-0.26,18.02,4.58,19.09,16.91C228.56,151.96,228.58,152.43,228.58,152.88z"/>
			<path class="st2" d="M228.58,152.88c0.12,8.78-5.95,15.25-13.89,17.71c-1.91-0.41-3.18-1.83-3.73-4.23
				c-0.09-0.4-0.15-0.79-0.17-1.17c0.86-0.13,1.75-0.29,2.68-0.49C222.76,162.73,226.95,157.65,228.58,152.88z"/>
		</g>
	</g>
	<g id="Door_Cage">
		<g>
			<path class="st1" d="M104.52,349.25l1.02,1.72l0.07-0.04c1.63-0.96,30.18-17.46,68.42-24.2l-0.35-1.97l-2,0.02
				c0.03,3.85,0.05,7.73,0.05,11.63c0,22.76-0.59,46.31-1.65,70.5l2,0.09l-0.47-1.94c-38.37,9.22-66.51,23.54-66.6,23.59l0.91,1.78
				l2-0.08c-0.99-25.22-1.42-51.86-1.42-79.6c0-0.49,0-0.99,0-1.48L104.52,349.25l1.02,1.72L104.52,349.25l-2,0c0,0.5,0,0.99,0,1.48
				c0,27.78,0.43,54.48,1.42,79.76c0.03,0.68,0.4,1.3,0.99,1.65s1.31,0.37,1.92,0.06l0.07-0.04c1.59-0.8,28.94-14.41,65.64-23.22
				c0.87-0.21,1.49-0.96,1.53-1.86c1.07-24.24,1.66-47.85,1.66-70.68c0-3.91-0.02-7.8-0.05-11.66c-0.01-0.59-0.27-1.15-0.72-1.52
				c-0.45-0.37-1.05-0.53-1.63-0.43c-40.26,7.11-69.73,24.68-69.85,24.74c-0.6,0.36-0.98,1.02-0.98,1.72L104.52,349.25z"/>
			<path class="st1" d="M157.26,328.03v82.33c0,1.1,0.9,2,2,2c1.1,0,2-0.9,2-2v-82.33c0-1.1-0.9-2-2-2
				C158.16,326.03,157.26,326.92,157.26,328.03"/>
			<path class="st1" d="M139.06,333.19v82.88c0,1.1,0.9,2,2,2c1.1,0,2-0.9,2-2v-82.88c0-1.1-0.9-2-2-2
				C139.96,331.19,139.06,332.08,139.06,333.19"/>
			<path class="st1" d="M120.86,340.22v82.67c0,1.1,0.9,2,2,2c1.1,0,2-0.9,2-2v-82.67c0-1.1-0.9-2-2-2
				C121.76,338.22,120.86,339.11,120.86,340.22"/>
		</g>
	</g>
</g>
<g id="Layer_x5F_Plants">
	<g>
		<path class="st1" d="M279.89,463.55c0,0,1.53-20.43,9.19-23.66s1.53,13.45,1.53,13.45s7.49-6.98,11.91-6.13s-1.02,7.15-1.02,7.15
			s9.02-4.09,11.23-1.53s-14.3,8.51-16.17,9.19S279.89,463.55,279.89,463.55z"/>
		<path class="st1" d="M229.24,473.8l-3.65,0.32c-5.38-0.3-28.14-1.73-26.38-4.24c1.69-2.38,7.51-0.85,9.3-0.31
			c-1.93-0.67-8.26-3.17-2.97-5.63c1.42-0.66,3.12,0.25,4.32,0.3c-1.67-2.35-2.27-5.41-0.79-6.34c3.72-2.32,7.68,4.69,7.88,5.06
			c-0.11-0.41-2.91-10.74,3.49-9.92c2.37,0.31,4.69,3.55,6.38,7.45c1.65-1.72,3.4-3.04,5.06-3.39c5.94-1.24,2.03,9.1,1.82,9.65
			c0.27-0.51,5.36-10.05,10.76-6.06C249.03,464.09,243.67,473.5,229.24,473.8z"/>
		<path class="st1" d="M139.3,461.51c0.72,0.03-5.62-15.83-11.74-18.72c-6.13-2.89-2.55,9.02-2.55,9.02s-4.6-11.4-10.55-8.85
			C108.49,445.51,116.66,460.49,139.3,461.51z"/>
	</g>
</g>
</svg>
